<svg width="48" height="47" viewBox="0 0 48 47" fill="none" xmlns="http://www.w3.org/2000/svg">
<path d="M46.9217 16.0495C46.9217 15.9528 46.8251 15.7594 46.8251 15.6627C46.7284 15.4694 46.7284 15.3727 46.6317 15.1793C46.535 14.8893 46.4383 14.5992 46.3417 14.4058C46.3417 14.3092 46.3417 14.3092 46.245 14.2125C45.0848 11.5053 43.4411 8.99157 41.2174 6.86453C36.9633 2.61046 31.0657 0 24.5879 0C20.5271 0 17.2399 3.28724 17.2399 7.34795C17.2399 11.4087 20.5271 14.6959 24.5879 14.6959C25.9414 14.6959 27.0049 13.6324 27.0049 12.2788C27.0049 10.9252 25.9414 9.86172 24.5879 9.86172C23.2343 9.86172 22.0741 8.70152 22.0741 7.34795C22.0741 5.99438 23.2343 4.83418 24.5879 4.83418C32.3225 4.83418 38.897 9.57167 41.7975 16.2428C42.7644 18.4666 43.2478 20.8836 43.2478 23.4941C43.2478 33.7426 34.8363 42.154 24.5879 42.154C14.3394 42.154 5.92793 33.7426 5.92793 23.4941C5.92793 21.7538 6.1213 20.1102 6.60472 18.4666C6.7014 18.1765 6.79808 17.7898 6.89477 17.4997V17.403C6.99145 17.0163 7.18482 16.7263 7.2815 16.3395C7.2815 16.3395 7.2815 16.3395 7.2815 16.2428C8.24834 14.0191 9.60191 11.9888 11.2455 10.3451C11.7289 9.86172 12.2124 9.47499 12.6958 8.99157C13.7593 8.12142 13.856 6.67117 13.0825 5.60765C12.2124 4.54413 10.7621 4.44744 9.69859 5.22091C9.0218 5.70433 8.4417 6.28443 7.8616 6.86453C6.02462 8.70152 4.57436 10.7319 3.41416 12.9556C3.22079 13.439 3.02743 13.8257 2.83406 14.3092V14.4058C2.64069 14.7926 2.44732 15.276 2.35064 15.6627C2.35064 15.7594 2.35064 15.7594 2.25396 15.8561C2.15728 16.2428 1.96391 16.6296 1.86722 17.113V17.2097C1.28712 19.24 0.99707 21.2704 0.99707 23.4941C0.99707 36.4497 11.5356 46.9882 24.4912 46.9882C37.4468 46.9882 47.9853 36.4497 47.9853 23.4941C48.082 20.8836 47.6952 18.3699 46.9217 16.0495Z" fill="#7180AC"/>
<path d="M24.588 36.6431C30.1957 36.6431 34.8365 32.0022 34.8365 26.3946C34.8365 25.041 33.773 23.9775 32.4194 23.9775C31.0658 23.9775 30.0023 25.041 30.0023 26.3946C30.0023 29.3918 27.5852 31.8089 24.588 31.8089C21.5909 31.8089 19.1738 29.3918 19.1738 26.3946C19.1738 25.041 18.1103 23.9775 16.7567 23.9775C15.4031 23.9775 14.3396 25.041 14.3396 26.3946C14.3396 32.0989 18.9804 36.6431 24.588 36.6431Z" fill="#7180AC"/>
</svg>
