<svg width="375" height="667" viewBox="0 0 375 667" fill="none" xmlns="http://www.w3.org/2000/svg">
<rect width="375" height="667" fill="#91E9FE"/>
<path d="M88 297.629L94.3168 296.605V303.263H101.999V308.555H94.3168V316.408C94.3168 317.774 94.4875 318.799 94.9997 319.652C95.5118 320.506 96.3654 320.847 97.9019 320.847C98.5848 320.847 99.2677 320.847 99.9506 320.676C100.634 320.506 101.316 320.335 101.999 320.164L102.853 325.115C101.999 325.457 101.146 325.627 100.292 325.969C99.2677 326.14 98.2434 326.31 96.8776 326.31C95.1704 326.31 93.6339 326.14 92.6095 325.627C91.4145 325.115 90.5608 324.432 89.878 323.579C89.1951 322.725 88.6829 321.701 88.5122 320.506C88.1707 319.311 88.1707 317.945 88.1707 316.579V297.629H88Z" fill="#7180AC"/>
<path d="M114.121 296.775C114.121 297.97 113.779 298.824 112.926 299.507C112.072 300.19 111.219 300.531 110.194 300.531C109.17 300.531 108.316 300.19 107.463 299.507C106.78 298.824 106.268 297.97 106.268 296.775C106.268 295.58 106.609 294.727 107.463 294.044C108.146 293.361 109.17 293.019 110.194 293.019C111.219 293.019 112.072 293.361 112.926 294.044C113.779 294.727 114.121 295.58 114.121 296.775ZM113.609 325.798H107.292V303.263H113.609V325.798Z" fill="#7180AC"/>
<path d="M119.584 304.116C120.608 303.775 122.145 303.433 123.852 303.263C125.559 302.921 127.437 302.921 129.315 302.921C131.193 302.921 132.73 303.092 134.095 303.604C135.291 304.116 136.315 304.799 137.168 305.653C137.851 306.506 138.364 307.702 138.705 308.897C139.046 310.092 139.217 311.628 139.217 313.165V325.798H132.9V313.848C132.9 311.799 132.559 310.262 132.047 309.409C131.535 308.555 130.51 308.043 128.974 308.043C128.462 308.043 128.12 308.043 127.608 308.043C127.096 308.043 126.584 308.214 126.242 308.214V325.627H119.584V304.116Z" fill="#7180AC"/>
<path d="M163.972 303.263C162.606 307.531 161.411 311.628 159.874 315.384C158.508 319.14 156.972 322.896 155.265 326.481C154.582 327.847 154.07 328.871 153.387 329.725C152.704 330.578 152.192 331.432 151.338 331.944C150.655 332.456 149.802 332.969 148.948 333.31C148.094 333.651 147.07 333.651 145.875 333.651C144.851 333.651 143.997 333.481 143.143 333.31C142.29 333.139 141.607 332.969 141.095 332.627L142.29 327.505C142.973 327.676 143.485 327.847 143.997 328.018C144.509 328.188 145.021 328.188 145.704 328.188C146.899 328.188 147.753 327.847 148.265 327.335C148.948 326.652 149.46 325.798 149.802 324.774C148.265 321.872 146.899 318.799 145.363 315.213C143.826 311.628 142.461 307.702 141.265 303.263H148.094C148.436 304.458 148.777 305.653 149.119 306.848C149.46 308.214 149.972 309.409 150.314 310.775C150.655 312.14 151.167 313.335 151.68 314.701C152.192 315.896 152.533 317.091 152.875 318.116C153.216 317.091 153.558 315.896 154.07 314.701C154.411 313.506 154.923 312.14 155.265 310.775C155.606 309.409 155.948 308.214 156.46 306.848C156.972 305.482 157.143 304.287 157.484 303.263H163.972Z" fill="#7180AC"/>
<path d="M167.386 325.798V293.702L173.703 292.678V303.433C174.044 303.263 174.727 303.092 175.41 303.092C176.093 302.921 176.776 302.921 177.288 302.921C179.166 302.921 180.703 303.092 181.898 303.604C183.093 304.116 184.117 304.799 184.8 305.653C185.483 306.506 185.995 307.702 186.337 308.897C186.678 310.092 186.849 311.628 186.849 313.165V325.798H180.532V313.848C180.532 311.799 180.19 310.262 179.678 309.409C179.166 308.555 178.142 308.043 176.776 308.043C176.264 308.043 175.752 308.043 175.239 308.214C174.727 308.384 174.215 308.384 173.874 308.555V325.627H167.386V325.798Z" fill="#7180AC"/>
<path d="M200.507 302.751C202.385 302.751 203.921 302.921 205.287 303.433C206.482 303.775 207.506 304.458 208.36 305.311C209.043 306.165 209.726 307.019 209.897 308.214C210.067 309.409 210.409 310.604 210.409 311.97V325.286C209.555 325.457 208.189 325.798 206.653 325.969C205.116 326.14 203.068 326.31 200.678 326.31C199.141 326.31 197.946 326.14 196.751 325.969C195.556 325.798 194.531 325.286 193.678 324.774C192.824 324.262 192.141 323.408 191.629 322.554C191.117 321.53 190.946 320.506 190.946 319.14C190.946 317.774 191.288 316.75 191.8 315.726C192.312 314.872 192.995 314.018 193.849 313.506C194.702 312.994 195.727 312.653 196.922 312.311C198.117 312.14 199.312 311.97 200.507 311.97C201.36 311.97 202.043 311.97 202.726 312.14C203.409 312.14 203.921 312.311 204.263 312.482V311.97C204.263 310.945 203.921 310.092 203.238 309.409C202.555 308.726 201.36 308.384 199.824 308.384C198.8 308.384 197.604 308.384 196.58 308.555C195.556 308.726 194.531 308.897 193.849 309.238L192.995 304.116C193.336 303.946 193.849 303.946 194.361 303.775C194.873 303.604 195.556 303.604 196.239 303.433C196.922 303.263 197.604 303.263 198.287 303.092C199.141 302.751 199.824 302.751 200.507 302.751ZM201.019 321.359C201.702 321.359 202.214 321.359 202.897 321.359C203.409 321.359 203.921 321.359 204.263 321.189V316.408C203.921 316.408 203.58 316.238 203.068 316.238C202.555 316.238 202.043 316.238 201.702 316.238C201.19 316.238 200.507 316.238 199.995 316.408C199.482 316.408 198.97 316.579 198.629 316.75C198.287 316.921 197.946 317.262 197.604 317.603C197.263 317.945 197.263 318.457 197.263 318.969C197.263 319.994 197.604 320.677 198.287 321.018C198.97 321.018 199.995 321.359 201.019 321.359Z" fill="#7180AC"/>
<path d="M237.041 314.53C237.041 316.238 236.871 317.774 236.359 319.311C235.846 320.847 235.334 321.872 234.481 323.067C233.627 324.262 232.603 324.945 231.408 325.457C230.213 325.969 228.847 326.31 227.139 326.31C226.286 326.31 225.432 326.31 224.579 326.14C223.725 325.969 223.042 325.798 222.359 325.457V333.993H216.042V304.116C216.555 303.946 217.238 303.775 218.091 303.604C218.945 303.433 219.628 303.263 220.481 303.263C221.335 303.092 222.189 303.092 223.042 302.921C223.896 302.921 224.749 302.751 225.432 302.751C227.31 302.751 229.017 303.092 230.383 303.604C231.749 304.116 233.115 304.97 234.139 305.994C235.163 307.019 235.846 308.214 236.359 309.75C236.7 311.116 237.041 312.653 237.041 314.53ZM230.554 314.701C230.554 312.653 230.042 311.116 229.188 309.921C228.335 308.726 226.969 308.214 225.262 308.214C224.749 308.214 224.237 308.214 223.725 308.214C223.213 308.214 222.871 308.384 222.53 308.384V319.823C222.871 319.994 223.384 320.335 224.066 320.506C224.749 320.677 225.432 320.847 225.944 320.847C229.017 320.847 230.554 318.799 230.554 314.701Z" fill="#7180AC"/>
<path d="M262.821 314.53C262.821 316.238 262.65 317.774 262.138 319.311C261.626 320.847 261.114 321.872 260.26 323.067C259.406 324.262 258.382 324.945 257.187 325.457C255.992 325.969 254.626 326.31 252.919 326.31C252.065 326.31 251.212 326.31 250.358 326.14C249.504 325.969 248.821 325.798 248.139 325.457V333.993H241.822V304.116C242.334 303.946 243.017 303.775 243.87 303.604C244.724 303.433 245.407 303.263 246.261 303.263C247.114 303.092 247.968 303.092 248.821 302.921C249.675 302.921 250.529 302.751 251.212 302.751C253.09 302.751 254.797 303.092 256.163 303.604C257.528 304.116 258.894 304.97 259.918 305.994C260.943 307.019 261.626 308.214 262.138 309.75C262.479 311.116 262.821 312.653 262.821 314.53ZM256.333 314.701C256.333 312.653 255.821 311.116 254.967 309.921C254.114 308.726 252.748 308.214 251.041 308.214C250.529 308.214 250.016 308.214 249.504 308.214C248.992 308.214 248.651 308.384 248.309 308.384V319.823C248.651 319.994 249.163 320.335 249.846 320.506C250.529 320.677 251.212 320.847 251.724 320.847C254.797 320.847 256.333 318.799 256.333 314.701Z" fill="#7180AC"/>
<path d="M287.063 303.263C285.697 307.531 284.502 311.628 282.966 315.384C281.6 319.14 280.063 322.896 278.356 326.481C277.673 327.847 277.161 328.871 276.478 329.725C275.795 330.578 275.283 331.432 274.429 331.944C273.747 332.456 272.893 332.969 272.039 333.31C271.186 333.651 270.161 333.651 268.966 333.651C267.942 333.651 267.088 333.481 266.235 333.31C265.381 333.139 264.698 332.969 264.186 332.627L265.381 327.505C266.064 327.676 266.576 327.847 267.088 328.018C267.601 328.188 268.113 328.188 268.796 328.188C269.991 328.188 270.844 327.847 271.356 327.335C272.039 326.652 272.551 325.798 272.893 324.774C271.356 321.872 269.991 318.799 268.454 315.213C266.918 311.628 265.552 307.702 264.357 303.263H271.186C271.527 304.458 271.869 305.653 272.21 306.848C272.551 308.214 273.064 309.409 273.405 310.775C273.747 312.14 274.259 313.335 274.771 314.701C275.283 315.896 275.625 317.091 275.966 318.116C276.307 317.091 276.649 315.896 277.161 314.701C277.502 313.506 278.015 312.14 278.356 310.775C278.698 309.409 279.039 308.214 279.551 306.848C279.893 305.482 280.234 304.287 280.575 303.263H287.063Z" fill="#7180AC"/>
<path d="M223.896 222.34C223.896 222.169 223.725 221.828 223.725 221.657C223.554 221.316 223.554 221.145 223.384 220.804C223.213 220.291 223.042 219.779 222.871 219.438C222.871 219.267 222.871 219.267 222.701 219.096C220.652 214.316 217.75 209.877 213.823 206.121C206.311 198.61 195.897 194 184.459 194C177.288 194 171.484 199.805 171.484 206.975C171.484 214.145 177.288 219.95 184.459 219.95C186.849 219.95 188.727 218.072 188.727 215.682C188.727 213.292 186.849 211.414 184.459 211.414C182.069 211.414 180.02 209.365 180.02 206.975C180.02 204.585 182.069 202.536 184.459 202.536C198.117 202.536 209.726 210.902 214.847 222.681C216.555 226.608 217.408 230.876 217.408 235.486C217.408 253.582 202.555 268.435 184.459 268.435C166.362 268.435 151.509 253.582 151.509 235.486C151.509 232.413 151.851 229.51 152.704 226.608C152.875 226.096 153.046 225.413 153.216 224.901V224.73C153.387 224.047 153.729 223.535 153.899 222.852C153.899 222.852 153.899 222.852 153.899 222.681C155.606 218.755 157.997 215.17 160.899 212.267C161.753 211.414 162.606 210.731 163.46 209.877C165.338 208.341 165.508 205.78 164.143 203.902C162.606 202.024 160.045 201.853 158.167 203.219C156.972 204.073 155.948 205.097 154.924 206.121C151.68 209.365 149.119 212.95 147.07 216.877C146.729 217.731 146.387 218.413 146.046 219.267V219.438C145.705 220.121 145.363 220.974 145.192 221.657C145.192 221.828 145.192 221.828 145.022 221.999C144.851 222.681 144.509 223.364 144.339 224.218V224.389C143.314 227.974 142.802 231.559 142.802 235.486C142.802 258.363 161.411 276.971 184.288 276.971C207.165 276.971 225.774 258.363 225.774 235.486C225.944 230.876 225.261 226.437 223.896 222.34Z" fill="#7180AC"/>
<path d="M184.459 258.704C194.361 258.704 202.556 250.509 202.556 240.607C202.556 238.217 200.678 236.339 198.288 236.339C195.897 236.339 194.019 238.217 194.019 240.607C194.019 245.9 189.751 250.168 184.459 250.168C179.167 250.168 174.898 245.9 174.898 240.607C174.898 238.217 173.021 236.339 170.63 236.339C168.24 236.339 166.362 238.217 166.362 240.607C166.362 250.68 174.557 258.704 184.459 258.704Z" fill="#7180AC"/>
</svg>
