<svg width="18" height="17" viewBox="0 0 18 17" fill="none" xmlns="http://www.w3.org/2000/svg">
<g id="Vector">
<path d="M9.65285 2.49522C9.65943 2.29481 9.67119 2.0944 9.68608 1.89605C9.7244 1.38583 10.1584 1 10.67 1H14.5915C15.0342 1 15.3842 1.39055 15.3601 1.83257C15.3601 2.13841 15.3433 2.44424 15.3266 2.73309C15.3098 3.02194 15.3098 3.2768 15.3098 3.49768V3.49769V3.93946C15.3098 5.62158 15.4772 7.40564 15.7785 9.27466C16.0141 10.7362 16.3213 12.0731 16.6842 13.2935C16.8462 13.8386 16.5454 14.4206 15.9998 14.5808L13.6711 15.2647C13.2439 15.3901 12.7829 15.2196 12.5606 14.8339C11.802 13.518 11.1347 11.9672 10.5901 10.1922C9.93738 8.11927 9.61938 5.92742 9.61938 3.63362V3.63361C9.61938 3.39573 9.61938 3.00494 9.65285 2.49522Z" stroke="#4991B6" stroke-width="2"/>
<path d="M1.03348 2.49522C1.04006 2.29481 1.05181 2.0944 1.06671 1.89605C1.10502 1.38583 1.539 1 2.05065 1H5.97217C6.41484 1 6.76486 1.39055 6.74067 1.83257C6.74067 2.13841 6.72394 2.44424 6.7072 2.73309C6.69047 3.02193 6.69047 3.27678 6.69047 3.49765V3.49769V3.93946C6.69047 5.62158 6.85783 7.40564 7.15909 9.27466C7.39468 10.7362 7.70191 12.0731 8.06478 13.2935C8.22686 13.8386 7.92605 14.4206 7.3804 14.5808L5.05169 15.2647C4.62455 15.3901 4.16351 15.2196 3.94118 14.8339C3.18266 13.518 2.51533 11.9672 1.97073 10.1922C1.318 8.11927 1.00001 5.92742 1.00001 3.63362C1.00001 3.39574 1.00001 3.00495 1.03348 2.49522Z" stroke="#4991B6" stroke-width="2"/>
</g>
</svg>
