<svg width="19" height="20" viewBox="0 0 19 20" fill="none" xmlns="http://www.w3.org/2000/svg">
<path d="M6.27679 11.25H4.58036C4.30045 11.25 4.07143 11.0391 4.07143 10.7812V9.21875C4.07143 8.96094 4.30045 8.75 4.58036 8.75H6.27679C6.5567 8.75 6.78571 8.96094 6.78571 9.21875V10.7812C6.78571 11.0391 6.5567 11.25 6.27679 11.25ZM10.8571 10.7812V9.21875C10.8571 8.96094 10.6281 8.75 10.3482 8.75H8.65179C8.37187 8.75 8.14286 8.96094 8.14286 9.21875V10.7812C8.14286 11.0391 8.37187 11.25 8.65179 11.25H10.3482C10.6281 11.25 10.8571 11.0391 10.8571 10.7812ZM14.9286 10.7812V9.21875C14.9286 8.96094 14.6996 8.75 14.4196 8.75H12.7232C12.4433 8.75 12.2143 8.96094 12.2143 9.21875V10.7812C12.2143 11.0391 12.4433 11.25 12.7232 11.25H14.4196C14.6996 11.25 14.9286 11.0391 14.9286 10.7812ZM10.8571 14.5312V12.9688C10.8571 12.7109 10.6281 12.5 10.3482 12.5H8.65179C8.37187 12.5 8.14286 12.7109 8.14286 12.9688V14.5312C8.14286 14.7891 8.37187 15 8.65179 15H10.3482C10.6281 15 10.8571 14.7891 10.8571 14.5312ZM6.78571 14.5312V12.9688C6.78571 12.7109 6.5567 12.5 6.27679 12.5H4.58036C4.30045 12.5 4.07143 12.7109 4.07143 12.9688V14.5312C4.07143 14.7891 4.30045 15 4.58036 15H6.27679C6.5567 15 6.78571 14.7891 6.78571 14.5312ZM14.9286 14.5312V12.9688C14.9286 12.7109 14.6996 12.5 14.4196 12.5H12.7232C12.4433 12.5 12.2143 12.7109 12.2143 12.9688V14.5312C12.2143 14.7891 12.4433 15 12.7232 15H14.4196C14.6996 15 14.9286 14.7891 14.9286 14.5312ZM19 4.375V18.125C19 19.1602 18.0882 20 16.9643 20H2.03571C0.91183 20 0 19.1602 0 18.125V4.375C0 3.33984 0.91183 2.5 2.03571 2.5H4.07143V0.46875C4.07143 0.210938 4.30045 0 4.58036 0H6.27679C6.5567 0 6.78571 0.210938 6.78571 0.46875V2.5H12.2143V0.46875C12.2143 0.210938 12.4433 0 12.7232 0H14.4196C14.6996 0 14.9286 0.210938 14.9286 0.46875V2.5H16.9643C18.0882 2.5 19 3.33984 19 4.375ZM16.9643 17.8906V6.25H2.03571V17.8906C2.03571 18.0195 2.15022 18.125 2.29018 18.125H16.7098C16.8498 18.125 16.9643 18.0195 16.9643 17.8906Z" fill="#7180AC"/>
</svg>
