<svg width="20" height="14" viewBox="0 0 20 14" fill="none" xmlns="http://www.w3.org/2000/svg">
<path d="M10 2.8125C10.368 2.81832 10.7333 2.87752 11.0847 2.98828C10.9222 3.27773 10.8356 3.60454 10.8334 3.9375C10.8334 4.19604 10.8836 4.45205 10.9814 4.69091C11.0791 4.92977 11.2223 5.1468 11.4029 5.32962C11.5834 5.51243 11.7978 5.65745 12.0337 5.75639C12.2696 5.85533 12.5224 5.90625 12.7778 5.90625C13.1066 5.90394 13.4294 5.81631 13.7153 5.65172C13.9408 6.44372 13.9146 7.28749 13.6402 8.06352C13.3658 8.83955 12.8572 9.5085 12.1864 9.9756C11.5157 10.4427 10.7168 10.6843 9.90288 10.6661C9.08899 10.648 8.30137 10.371 7.65159 9.87444C7.00181 9.37788 6.52281 8.68691 6.28243 7.89939C6.04206 7.11188 6.0525 6.26775 6.31228 5.48658C6.57205 4.70541 7.068 4.02679 7.72985 3.54686C8.39171 3.06693 9.18594 2.81001 10 2.8125ZM0.120852 6.23672C2.00384 2.51684 5.73162 0 10 0C14.2684 0 17.9972 2.51859 19.8792 6.23707C19.9586 6.39616 20 6.57192 20 6.75018C20 6.92843 19.9586 7.1042 19.8792 7.26328C17.9962 10.9832 14.2684 13.5 10 13.5C5.73162 13.5 2.0028 10.9814 0.120852 7.26293C0.04142 7.10384 3.8147e-05 6.92808 3.8147e-05 6.74982C3.8147e-05 6.57157 0.04142 6.3958 0.120852 6.23672ZM10 11.8125C13.4254 11.8125 16.5656 9.87891 18.2615 6.75C16.5656 3.62109 13.4257 1.6875 10 1.6875C6.57432 1.6875 3.43439 3.62109 1.73856 6.75C3.43405 9.87891 6.57432 11.8125 10 11.8125Z" fill="#7180AC"/>
</svg>
