<svg width="20" height="16" viewBox="0 0 20 16" fill="none" xmlns="http://www.w3.org/2000/svg">
<g clip-path="url(#clip0)">
<path d="M19.8117 14.7187L1.12421 0.109688C1.07295 0.0686496 1.01411 0.038109 0.951053 0.0198098C0.887994 0.00151062 0.821947 -0.00418892 0.756685 0.00303664C0.691423 0.0102622 0.628223 0.0302713 0.570694 0.0619217C0.513164 0.093572 0.462432 0.136244 0.421394 0.1875L0.108894 0.577813C0.0677599 0.629087 0.0371398 0.687969 0.018786 0.75109C0.000432346 0.81421 -0.00529468 0.880331 0.00193266 0.945667C0.00916001 1.011 0.0291999 1.07427 0.0609055 1.13186C0.0926112 1.18944 0.13536 1.24021 0.186707 1.28125L18.8742 15.8903C18.9255 15.9313 18.9843 15.9619 19.0474 15.9802C19.1104 15.9985 19.1765 16.0042 19.2417 15.997C19.307 15.9897 19.3702 15.9697 19.4277 15.9381C19.4853 15.9064 19.536 15.8638 19.577 15.8125L19.8895 15.4222C19.9307 15.3709 19.9613 15.312 19.9796 15.2489C19.998 15.1858 20.0037 15.1197 19.9965 15.0543C19.9893 14.989 19.9692 14.9257 19.9375 14.8681C19.9058 14.8106 19.8631 14.7598 19.8117 14.7187ZM9.2739 4.57719L13.4861 7.87031C13.4167 5.99719 11.8892 4.5 9.99921 4.5C9.75541 4.50046 9.51233 4.52633 9.2739 4.57719ZM10.7245 11.4231L6.51233 8.13C6.58202 10.0028 8.10952 11.5 9.99921 11.5C10.243 11.4995 10.4861 11.4737 10.7245 11.4231ZM9.99921 3.5C13.082 3.5 15.9083 5.21875 17.4345 8C17.0604 8.68449 16.5981 9.31697 16.0595 9.88125L17.2389 10.8031C17.8955 10.1007 18.4518 9.31081 18.892 8.45594C18.9635 8.31453 19.0008 8.15829 19.0008 7.99984C19.0008 7.84139 18.9635 7.68516 18.892 7.54375C17.1958 4.23719 13.8408 2 9.99921 2C8.85233 2 7.75827 2.21875 6.72952 2.58781L8.17983 3.72187C8.77171 3.5875 9.37796 3.5 9.99921 3.5ZM9.99921 12.5C6.91639 12.5 4.09046 10.7812 2.56389 8C2.93851 7.31552 3.40132 6.68314 3.94046 6.11906L2.76108 5.19719C2.10456 5.89952 1.54836 6.6893 1.10827 7.54406C1.03678 7.68547 0.999537 7.8417 0.999537 8.00016C0.999537 8.15861 1.03678 8.31484 1.10827 8.45625C2.80296 11.7628 6.15796 14 9.99921 14C11.1461 14 12.2401 13.7797 13.2689 13.4122L11.8186 12.2784C11.2267 12.4125 10.6208 12.5 9.99921 12.5Z" fill="#7180AC"/>
</g>
<defs>
<clipPath id="clip0">
<rect width="20" height="16" fill="white"/>
</clipPath>
</defs>
</svg>
