<svg width="17" height="16" viewBox="0 0 17 16" fill="none" xmlns="http://www.w3.org/2000/svg">
<path d="M15.485 5.21702L5.66008 15.0398L2.19446 15.5022C1.19005 15.6362 0.30966 14.8584 0.393783 13.8967L0.684519 10.6035L10.5094 0.78073C11.3662 -0.0758635 12.7889 -0.116511 13.6893 0.689876L15.3952 2.21089C16.2995 3.01717 16.338 4.36416 15.485 5.21702ZM11.718 6.44745L9.42375 4.40183L2.47235 11.3555L2.2594 13.7343L4.76269 13.3976L11.718 6.44745ZM14.127 3.48258L12.4211 1.96156C12.2592 1.81721 12.0016 1.82457 11.852 1.97782L10.6959 3.13366L12.9902 5.17928L14.1463 4.02344C14.2957 3.86656 14.2889 3.62693 14.127 3.48258Z" fill="#B6C5E6"/>
</svg>
