<svg width="20" height="21" viewBox="0 0 20 21" fill="none" xmlns="http://www.w3.org/2000/svg">
<path d="M9.96358 0.28125C4.45951 0.28125 0 4.85552 0 10.5013C0 16.147 4.45951 20.7213 9.96358 20.7213C15.4677 20.7213 19.9272 16.147 19.9272 10.5013C19.9272 4.85552 15.4677 0.28125 9.96358 0.28125ZM9.96358 18.7432C5.5322 18.7432 1.92844 15.0467 1.92844 10.5013C1.92844 5.95582 5.5322 2.25931 9.96358 2.25931C14.395 2.25931 17.9987 5.95582 17.9987 10.5013C17.9987 15.0467 14.395 18.7432 9.96358 18.7432ZM6.74953 9.8419C7.46064 9.8419 8.03515 9.2526 8.03515 8.52319C8.03515 7.79377 7.46064 7.20448 6.74953 7.20448C6.03841 7.20448 5.4639 7.79377 5.4639 8.52319C5.4639 9.2526 6.03841 9.8419 6.74953 9.8419ZM13.1776 9.8419C13.8888 9.8419 14.4633 9.2526 14.4633 8.52319C14.4633 7.79377 13.8888 7.20448 13.1776 7.20448C12.4665 7.20448 11.892 7.79377 11.892 8.52319C11.892 9.2526 12.4665 9.8419 13.1776 9.8419ZM13.3383 12.8337C12.5027 13.864 11.2693 14.4574 9.96358 14.4574C8.65787 14.4574 7.42448 13.8681 6.58882 12.8337C6.24733 12.4134 5.63666 12.3598 5.23088 12.706C4.82109 13.0563 4.76886 13.6785 5.10634 14.0989C6.31161 15.5824 8.08336 16.4313 9.96358 16.4313C11.8438 16.4313 13.6156 15.5824 14.8208 14.0989C15.1623 13.6785 15.1061 13.0563 14.6963 12.706C14.2905 12.3598 13.6798 12.4134 13.3383 12.8337Z" fill="#7180AC"/>
</svg>
