<svg width="22" height="22" viewBox="0 0 22 22" fill="none" xmlns="http://www.w3.org/2000/svg">
<path d="M15.6534 11.4855L11.1502 10.8281L9.13491 6.7375C8.95444 6.37227 8.60209 6.1875 8.24544 6.1875C7.89309 6.1875 7.54504 6.36797 7.36457 6.7375L5.34929 10.8281L0.846084 11.4855C0.0382567 11.6016 -0.288312 12.5984 0.300371 13.1699L3.56176 16.3496L2.78831 20.8441C2.67659 21.4844 3.18793 22 3.75942 22C3.90981 22 4.0688 21.9656 4.21919 21.884L8.24974 19.7613L12.2803 21.884C12.4307 21.9613 12.5854 22 12.7358 22C13.3073 22 13.8186 21.4887 13.7112 20.8441L12.942 16.3496L16.2034 13.1699C16.7878 12.5984 16.4612 11.6016 15.6534 11.4855ZM11.4982 14.8758L10.7205 15.632L10.9053 16.702L11.3092 19.0438L9.20796 17.9395L8.24974 17.4324L7.28722 17.9395L5.18601 19.0438L5.58992 16.702L5.77469 15.632L4.99694 14.8758L3.29105 13.2129L5.64578 12.8691L6.72002 12.7145L7.20128 11.7434L8.24974 9.61211L9.2982 11.7434L9.77946 12.7145L10.8537 12.8691L13.2084 13.2129L11.4982 14.8758ZM14.4374 6.875L15.5846 4.58477L17.8749 3.4375L15.5846 2.29023L14.4374 0L13.2901 2.29023L10.9998 3.4375L13.2901 4.58477L14.4374 6.875ZM20.625 8.25L19.9375 6.875L19.2499 8.25L17.8749 8.9375L19.2499 9.625L19.9375 11L20.625 9.625L22 8.9375L20.625 8.25Z" fill="#526193"/>
</svg>
