<svg width="18" height="17" viewBox="0 0 18 17" fill="none" xmlns="http://www.w3.org/2000/svg">
<path d="M16.6161 5.80689C16.6161 5.77191 16.5811 5.70194 16.5811 5.66696C16.5461 5.597 16.5461 5.56202 16.5111 5.49206C16.4762 5.38711 16.4412 5.28217 16.4062 5.21221C16.4062 5.17722 16.4062 5.17722 16.3712 5.14224C15.9514 4.16277 15.3568 3.25326 14.5522 2.48367C13.013 0.944494 10.8792 0 8.53542 0C7.06621 0 5.87685 1.18936 5.87685 2.65857C5.87685 4.12779 7.06621 5.31715 8.53542 5.31715C9.02516 5.31715 9.40995 4.93236 9.40995 4.44262C9.40995 3.95288 9.02516 3.56809 8.53542 3.56809C8.04569 3.56809 7.62591 3.14831 7.62591 2.65857C7.62591 2.16884 8.04569 1.74906 8.53542 1.74906C11.3339 1.74906 13.7126 3.46314 14.7621 5.87685C15.1119 6.68142 15.2868 7.55595 15.2868 8.50044C15.2868 12.2085 12.2434 15.2518 8.53542 15.2518C4.82741 15.2518 1.78404 12.2085 1.78404 8.50044C1.78404 7.87078 1.85401 7.2761 2.02891 6.68142C2.06389 6.57647 2.09888 6.43655 2.13386 6.33161V6.29662C2.16884 6.1567 2.2388 6.05176 2.27378 5.91183C2.27378 5.91183 2.27378 5.91183 2.27378 5.87685C2.62359 5.07228 3.11333 4.33767 3.70801 3.74299C3.88292 3.56809 4.05782 3.42816 4.23273 3.25326C4.61752 2.93842 4.6525 2.41371 4.37265 2.02891C4.05782 1.64412 3.53311 1.60914 3.14831 1.88899C2.90344 2.06389 2.69356 2.27378 2.48367 2.48367C1.81903 3.14831 1.29431 3.88292 0.874531 4.68749C0.804568 4.86239 0.734607 5.00232 0.664644 5.17722V5.21221C0.594682 5.35213 0.524719 5.52704 0.489738 5.66696C0.489738 5.70194 0.489738 5.70194 0.454757 5.73692C0.419776 5.87685 0.349813 6.01677 0.314832 6.19168V6.22666C0.104944 6.96127 0 7.69587 0 8.50044C0 13.1879 3.81296 17.0009 8.50044 17.0009C13.1879 17.0009 17.0009 13.1879 17.0009 8.50044C17.0359 7.55595 16.8959 6.64644 16.6161 5.80689Z" fill="#7180AC"/>
<path d="M8.53516 13.2581C10.5641 13.2581 12.2432 11.579 12.2432 9.55007C12.2432 9.06033 11.8584 8.67554 11.3686 8.67554C10.8789 8.67554 10.4941 9.06033 10.4941 9.55007C10.4941 10.6345 9.61958 11.509 8.53516 11.509C7.45074 11.509 6.57621 10.6345 6.57621 9.55007C6.57621 9.06033 6.19142 8.67554 5.70168 8.67554C5.21194 8.67554 4.82715 9.06033 4.82715 9.55007C4.82715 11.614 6.50625 13.2581 8.53516 13.2581Z" fill="#7180AC"/>
</svg>
