<svg width="18" height="18" viewBox="0 0 18 18" fill="none" xmlns="http://www.w3.org/2000/svg">
<path d="M15.466 0.227628L0.842157 8.66095C-0.367125 9.36051 -0.251118 11.1498 1.04253 11.6806L5.06058 13.3434V16.3104C5.06058 17.9415 7.14167 18.6129 8.10488 17.3157L9.6446 15.2382L13.5783 16.8623C13.7857 16.9466 14.0036 16.9888 14.2216 16.9888C14.5099 16.9888 14.7946 16.915 15.0512 16.7709C15.5012 16.5178 15.8105 16.0678 15.8914 15.5581L17.9795 1.94663C18.1939 0.536979 16.6823 -0.471927 15.466 0.227628ZM6.74795 16.3104V14.0394L8.03457 14.5703L6.74795 16.3104ZM14.2216 15.3015L8.81498 13.0692L13.7435 5.95765C14.1196 5.41277 13.4095 4.78001 12.9104 5.2124L5.47539 11.6912L1.68584 10.1233L16.3097 1.6865L14.2216 15.3015Z" fill="#7180AC"/>
</svg>
