<svg width="18" height="17" viewBox="0 0 18 17" fill="none" xmlns="http://www.w3.org/2000/svg">
<path d="M7.95341 16.5384L2.33523 10.6103C2.09318 10.3685 0 8.21056 0 5.525C0 2.20194 1.93636 0 5.18182 0C6.59318 0 7.92955 0.835345 9 1.82457C10.067 0.835345 11.4068 0 12.8182 0C15.9443 0 18 2.07004 18 5.525C18 7.43017 16.9159 9.31702 15.6784 10.6067L15.6648 10.6213L10.0466 16.5384C9.76778 16.8341 9.39177 17 9 17C8.60823 17 8.23222 16.8341 7.95341 16.5384ZM3.47386 9.34633L9 15.1791L14.5159 9.36465C15.4466 8.37543 16.3636 6.93556 16.3636 5.525C16.3636 3.07392 15.0614 1.75862 12.8182 1.75862C11.2091 1.75862 9.65455 3.56487 9 4.26465C8.42045 3.64181 6.81818 1.75862 5.18182 1.75862C2.93523 1.75862 1.63636 3.07392 1.63636 5.525C1.63636 6.89159 2.54659 8.41573 3.47386 9.34633Z" fill="#D4E0F6"/>
</svg>
