<svg width="200" height="140" viewBox="0 0 200 140" fill="none" xmlns="http://www.w3.org/2000/svg">
<path d="M0 103.629L6.31676 102.605V109.263H13.9993V114.555H6.31676V122.408C6.31676 123.774 6.48748 124.799 6.99965 125.652C7.51182 126.506 8.36543 126.847 9.90194 126.847C10.5848 126.847 11.2677 126.847 11.9506 126.676C12.6335 126.506 13.3164 126.335 13.9993 126.164L14.8529 131.115C13.9993 131.457 13.1457 131.627 12.2921 131.969C11.2677 132.14 10.2434 132.31 8.87761 132.31C7.17037 132.31 5.63387 132.14 4.60953 131.627C3.41446 131.115 2.56085 130.432 1.87796 129.579C1.19506 128.725 0.682891 127.701 0.512168 126.506C0.170722 125.311 0.170724 123.945 0.170724 122.579V103.629H0Z" fill="#7180AC"/>
<path d="M26.1206 102.775C26.1206 103.97 25.7792 104.824 24.9255 105.507C24.0719 106.19 23.2183 106.531 22.194 106.531C21.1696 106.531 20.316 106.19 19.4624 105.507C18.7795 104.824 18.2673 103.97 18.2673 102.775C18.2673 101.58 18.6088 100.727 19.4624 100.044C20.1453 99.3608 21.1696 99.0194 22.194 99.0194C23.2183 99.0194 24.0719 99.3608 24.9255 100.044C25.7792 100.727 26.1206 101.58 26.1206 102.775ZM25.6084 131.798H19.2917V109.263H25.6084V131.798Z" fill="#7180AC"/>
<path d="M31.5837 110.116C32.6081 109.775 34.1446 109.433 35.8518 109.263C37.559 108.921 39.437 108.921 41.315 108.921C43.1929 108.921 44.7294 109.092 46.0952 109.604C47.2903 110.116 48.3146 110.799 49.1682 111.653C49.8511 112.506 50.3633 113.702 50.7047 114.897C51.0462 116.092 51.2169 117.628 51.2169 119.165V131.798H44.9001V119.848C44.9001 117.799 44.5587 116.262 44.0465 115.409C43.5344 114.555 42.51 114.043 40.9735 114.043C40.4613 114.043 40.1199 114.043 39.6077 114.043C39.0956 114.043 38.5834 114.214 38.2419 114.214V131.627H31.5837V110.116Z" fill="#7180AC"/>
<path d="M75.9719 109.263C74.6061 113.531 73.411 117.628 71.8745 121.384C70.5087 125.14 68.9722 128.896 67.265 132.481C66.5821 133.847 66.0699 134.871 65.387 135.725C64.7041 136.578 64.192 137.432 63.3384 137.944C62.6555 138.456 61.8019 138.969 60.9482 139.31C60.0946 139.651 59.0703 139.651 57.8752 139.651C56.8509 139.651 55.9973 139.481 55.1437 139.31C54.29 139.139 53.6071 138.969 53.095 138.627L54.29 133.505C54.9729 133.676 55.4851 133.847 55.9973 134.018C56.5094 134.188 57.0216 134.188 57.7045 134.188C58.8996 134.188 59.7532 133.847 60.2653 133.335C60.9482 132.652 61.4604 131.798 61.8019 130.774C60.2653 127.872 58.8996 124.799 57.363 121.213C55.8265 117.628 54.4608 113.702 53.2657 109.263H60.0946C60.4361 110.458 60.7775 111.653 61.119 112.848C61.4604 114.214 61.9726 115.409 62.314 116.775C62.6555 118.14 63.1676 119.335 63.6798 120.701C64.192 121.896 64.5334 123.091 64.8749 124.116C65.2163 123.091 65.5578 121.896 66.0699 120.701C66.4114 119.506 66.9236 118.14 67.265 116.775C67.6064 115.409 67.9479 114.214 68.4601 112.848C68.9722 111.482 69.143 110.287 69.4844 109.263H75.9719Z" fill="#7180AC"/>
<path d="M79.3862 131.798V99.7023L85.703 98.6779V109.433C86.0444 109.263 86.7273 109.092 87.4102 109.092C88.0931 108.921 88.776 108.921 89.2882 108.921C91.1661 108.921 92.7026 109.092 93.8977 109.604C95.0928 110.116 96.1171 110.799 96.8 111.653C97.4829 112.506 97.9951 113.702 98.3365 114.897C98.6779 116.092 98.8487 117.628 98.8487 119.165V131.798H92.5319V119.848C92.5319 117.799 92.1905 116.262 91.6783 115.409C91.1661 114.555 90.1418 114.043 88.776 114.043C88.2638 114.043 87.7517 114.043 87.2395 114.214C86.7273 114.384 86.2152 114.384 85.8737 114.555V131.627H79.3862V131.798Z" fill="#7180AC"/>
<path d="M112.507 108.751C114.384 108.751 115.921 108.921 117.287 109.433C118.482 109.775 119.506 110.458 120.36 111.311C121.043 112.165 121.726 113.019 121.896 114.214C122.067 115.409 122.408 116.604 122.408 117.97V131.286C121.555 131.457 120.189 131.798 118.653 131.969C117.116 132.14 115.067 132.31 112.677 132.31C111.141 132.31 109.946 132.14 108.751 131.969C107.556 131.798 106.531 131.286 105.678 130.774C104.824 130.262 104.141 129.408 103.629 128.554C103.117 127.53 102.946 126.506 102.946 125.14C102.946 123.774 103.287 122.75 103.8 121.726C104.312 120.872 104.995 120.018 105.848 119.506C106.702 118.994 107.726 118.653 108.921 118.311C110.116 118.14 111.311 117.97 112.507 117.97C113.36 117.97 114.043 117.97 114.726 118.14C115.409 118.14 115.921 118.311 116.262 118.482V117.97C116.262 116.945 115.921 116.092 115.238 115.409C114.555 114.726 113.36 114.384 111.824 114.384C110.799 114.384 109.604 114.384 108.58 114.555C107.556 114.726 106.531 114.897 105.848 115.238L104.995 110.116C105.336 109.946 105.848 109.946 106.361 109.775C106.873 109.604 107.556 109.604 108.238 109.433C108.921 109.263 109.604 109.263 110.287 109.092C111.141 108.751 111.824 108.751 112.507 108.751ZM113.019 127.359C113.702 127.359 114.214 127.359 114.897 127.359C115.409 127.359 115.921 127.359 116.262 127.189V122.408C115.921 122.408 115.58 122.238 115.067 122.238C114.555 122.238 114.043 122.238 113.702 122.238C113.189 122.238 112.507 122.238 111.994 122.408C111.482 122.408 110.97 122.579 110.629 122.75C110.287 122.921 109.946 123.262 109.604 123.603C109.263 123.945 109.263 124.457 109.263 124.969C109.263 125.994 109.604 126.677 110.287 127.018C110.97 127.018 111.994 127.359 113.019 127.359Z" fill="#7180AC"/>
<path d="M149.041 120.53C149.041 122.238 148.871 123.774 148.358 125.311C147.846 126.847 147.334 127.872 146.48 129.067C145.627 130.262 144.603 130.945 143.407 131.457C142.212 131.969 140.847 132.31 139.139 132.31C138.286 132.31 137.432 132.31 136.579 132.14C135.725 131.969 135.042 131.798 134.359 131.457V139.993H128.042V110.116C128.555 109.946 129.237 109.775 130.091 109.604C130.945 109.433 131.628 109.263 132.481 109.263C133.335 109.092 134.188 109.092 135.042 108.921C135.896 108.921 136.749 108.751 137.432 108.751C139.31 108.751 141.017 109.092 142.383 109.604C143.749 110.116 145.115 110.97 146.139 111.994C147.163 113.019 147.846 114.214 148.358 115.75C148.7 117.116 149.041 118.653 149.041 120.53ZM142.554 120.701C142.554 118.653 142.042 117.116 141.188 115.921C140.334 114.726 138.969 114.214 137.261 114.214C136.749 114.214 136.237 114.214 135.725 114.214C135.213 114.214 134.871 114.384 134.53 114.384V125.823C134.871 125.994 135.383 126.335 136.066 126.506C136.749 126.677 137.432 126.847 137.944 126.847C141.017 126.847 142.554 124.799 142.554 120.701Z" fill="#7180AC"/>
<path d="M174.82 120.53C174.82 122.238 174.65 123.774 174.138 125.311C173.625 126.847 173.113 127.872 172.26 129.067C171.406 130.262 170.382 130.945 169.187 131.457C167.992 131.969 166.626 132.31 164.919 132.31C164.065 132.31 163.211 132.31 162.358 132.14C161.504 131.969 160.821 131.798 160.138 131.457V139.993H153.822V110.116C154.334 109.946 155.017 109.775 155.87 109.604C156.724 109.433 157.407 109.263 158.26 109.263C159.114 109.092 159.968 109.092 160.821 108.921C161.675 108.921 162.528 108.751 163.211 108.751C165.089 108.751 166.797 109.092 168.162 109.604C169.528 110.116 170.894 110.97 171.918 111.994C172.943 113.019 173.625 114.214 174.138 115.75C174.479 117.116 174.82 118.653 174.82 120.53ZM168.333 120.701C168.333 118.653 167.821 117.116 166.967 115.921C166.114 114.726 164.748 114.214 163.041 114.214C162.528 114.214 162.016 114.214 161.504 114.214C160.992 114.214 160.65 114.384 160.309 114.384V125.823C160.65 125.994 161.163 126.335 161.846 126.506C162.528 126.677 163.211 126.847 163.723 126.847C166.797 126.847 168.333 124.799 168.333 120.701Z" fill="#7180AC"/>
<path d="M199.063 109.263C197.697 113.531 196.502 117.628 194.966 121.384C193.6 125.14 192.063 128.896 190.356 132.481C189.673 133.847 189.161 134.871 188.478 135.725C187.795 136.578 187.283 137.432 186.43 137.944C185.747 138.456 184.893 138.969 184.039 139.31C183.186 139.651 182.161 139.651 180.966 139.651C179.942 139.651 179.088 139.481 178.235 139.31C177.381 139.139 176.698 138.969 176.186 138.627L177.381 133.505C178.064 133.676 178.576 133.847 179.088 134.018C179.601 134.188 180.113 134.188 180.796 134.188C181.991 134.188 182.844 133.847 183.357 133.335C184.039 132.652 184.552 131.798 184.893 130.774C183.357 127.872 181.991 124.799 180.454 121.213C178.918 117.628 177.552 113.702 176.357 109.263H183.186C183.527 110.458 183.869 111.653 184.21 112.848C184.552 114.214 185.064 115.409 185.405 116.775C185.747 118.14 186.259 119.335 186.771 120.701C187.283 121.896 187.625 123.091 187.966 124.116C188.308 123.091 188.649 121.896 189.161 120.701C189.503 119.506 190.015 118.14 190.356 116.775C190.698 115.409 191.039 114.214 191.551 112.848C191.893 111.482 192.234 110.287 192.576 109.263H199.063Z" fill="#7180AC"/>
<path d="M135.896 28.34C135.896 28.1693 135.725 27.8279 135.725 27.6571C135.554 27.3157 135.554 27.145 135.384 26.8035C135.213 26.2914 135.042 25.7792 134.871 25.4377C134.871 25.267 134.871 25.267 134.701 25.0963C132.652 20.316 129.75 15.8772 125.823 12.1213C118.311 4.60952 107.897 0 96.4587 0C89.2883 0 83.4837 5.80459 83.4837 12.975C83.4837 20.1453 89.2883 25.9499 96.4587 25.9499C98.8488 25.9499 100.727 24.072 100.727 21.6818C100.727 19.2917 98.8488 17.4138 96.4587 17.4138C94.0686 17.4138 92.0199 15.3651 92.0199 12.975C92.0199 10.5848 94.0686 8.53615 96.4587 8.53615C110.117 8.53615 121.726 16.9016 126.847 28.6815C128.555 32.6081 129.408 36.8762 129.408 41.4857C129.408 59.5824 114.555 74.4353 96.4587 74.4353C78.362 74.4353 63.5091 59.5824 63.5091 41.4857C63.5091 38.4127 63.8506 35.5104 64.7042 32.6081C64.8749 32.0959 65.0456 31.4131 65.2164 30.9009V30.7302C65.3871 30.0473 65.7285 29.5351 65.8992 28.8522C65.8992 28.8522 65.8992 28.8522 65.8992 28.6815C67.6065 24.7548 69.9966 21.1697 72.8989 18.2674C73.7525 17.4138 74.6061 16.7309 75.4597 15.8772C77.3377 14.3407 77.5084 11.7799 76.1426 9.90194C74.6061 8.02399 72.0453 7.85326 70.1673 9.21905C68.9723 10.0727 67.9479 11.097 66.9236 12.1213C63.6799 15.3651 61.119 18.9503 59.0703 22.8769C58.7289 23.7305 58.3874 24.4134 58.046 25.267V25.4377C57.7045 26.1206 57.3631 26.9743 57.1924 27.6571C57.1924 27.8279 57.1924 27.8279 57.0217 27.9986C56.8509 28.6815 56.5095 29.3644 56.3388 30.218V30.3887C55.3144 33.9739 54.8022 37.5591 54.8022 41.4857C54.8022 64.3626 73.4111 82.9714 96.288 82.9714C119.165 82.9714 137.774 64.3626 137.774 41.4857C137.944 36.8762 137.261 32.4374 135.896 28.34Z" fill="#7180AC"/>
<path d="M96.4587 64.704C106.361 64.704 114.555 56.5093 114.555 46.6074C114.555 44.2173 112.677 42.3393 110.287 42.3393C107.897 42.3393 106.019 44.2173 106.019 46.6074C106.019 51.8998 101.751 56.1679 96.4587 56.1679C91.1663 56.1679 86.8982 51.8998 86.8982 46.6074C86.8982 44.2173 85.0203 42.3393 82.6301 42.3393C80.24 42.3393 78.3621 44.2173 78.3621 46.6074C78.3621 56.6801 86.5568 64.704 96.4587 64.704Z" fill="#7180AC"/>
</svg>
