<svg width="98" height="113" viewBox="0 0 98 113" fill="none" xmlns="http://www.w3.org/2000/svg">
<mask id="path-1-inside-1" fill="white">
<path fill-rule="evenodd" clip-rule="evenodd" d="M98.0001 20.4556L97.9999 20.5407V49.5242L42.6776 63.879L16.9922 15.0726L66.8249 1.56316C69.4885 0.556057 72.4107 0 75.476 0C87.518 0 97.3529 8.58215 97.9694 19.379H97.9999V20.3706L98.0001 20.4556Z"/>
</mask>
<path d="M97.9999 20.5407L94.9999 20.534V20.5407H97.9999ZM98.0001 20.4556L101 20.4624L101 20.4489L98.0001 20.4556ZM97.9999 49.5242L98.7533 52.428L101 51.8451V49.5242H97.9999ZM42.6776 63.879L40.0228 65.2761L41.1299 67.3799L43.431 66.7828L42.6776 63.879ZM16.9922 15.0726L16.2072 12.1771L12.5938 13.1566L14.3374 16.4697L16.9922 15.0726ZM66.8249 1.56316L67.6099 4.45864L67.7501 4.42064L67.8859 4.36927L66.8249 1.56316ZM97.9694 19.379L94.9743 19.55L95.1358 22.379H97.9694V19.379ZM97.9999 19.379H101V16.379H97.9999V19.379ZM97.9999 20.3706H94.9999L94.9999 20.3773L97.9999 20.3706ZM101 20.5475L101 20.4624L95.0001 20.4489L94.9999 20.534L101 20.5475ZM101 49.5242V20.5407H94.9999V49.5242H101ZM97.2464 46.6203L41.9241 60.9752L43.431 66.7828L98.7533 52.428L97.2464 46.6203ZM45.3324 62.4819L19.647 13.6754L14.3374 16.4697L40.0228 65.2761L45.3324 62.4819ZM17.7771 17.968L67.6099 4.45864L66.04 -1.33233L16.2072 12.1771L17.7771 17.968ZM75.476 -3C72.0468 -3 68.7652 -2.37773 65.7639 -1.24296L67.8859 4.36927C70.2118 3.48984 72.7747 3 75.476 3V-3ZM100.965 19.208C100.244 6.58839 88.862 -3 75.476 -3V3C86.1741 3 94.4619 10.5759 94.9743 19.55L100.965 19.208ZM97.9999 16.379H97.9694V22.379H97.9999V16.379ZM101 20.3706V19.379H94.9999V20.3706H101ZM101 20.4489L101 20.3638L94.9999 20.3773L95.0001 20.4624L101 20.4489Z" fill="#7180AC" mask="url(#path-1-inside-1)"/>
<mask id="path-3-inside-2" fill="white">
<path fill-rule="evenodd" clip-rule="evenodd" d="M45.0482 34.8105V63.879H0V34.8105V33.7339H0.0306616C0.647128 22.937 10.482 14.3549 22.5241 14.3549C34.5662 14.3549 44.4011 22.937 45.0175 33.7339H45.0482V34.8105Z"/>
</mask>
<path fill-rule="evenodd" clip-rule="evenodd" d="M45.0482 34.8105V63.879H0V34.8105V33.7339H0.0306616C0.647128 22.937 10.482 14.3549 22.5241 14.3549C34.5662 14.3549 44.4011 22.937 45.0175 33.7339H45.0482V34.8105Z" fill="#F5F9FD"/>
<path d="M45.0482 63.879V66.879H48.0482V63.879H45.0482ZM0 63.879H-3V66.879H0V63.879ZM0 33.7339V30.7339H-3V33.7339H0ZM0.0306616 33.7339V36.7339H2.86426L3.02578 33.9049L0.0306616 33.7339ZM45.0175 33.7339L42.0224 33.9049L42.1839 36.7339H45.0175V33.7339ZM45.0482 33.7339H48.0482V30.7339H45.0482V33.7339ZM42.0482 34.8105V63.879H48.0482V34.8105H42.0482ZM45.0482 60.879H0V66.879H45.0482V60.879ZM3 63.879V34.8105H-3V63.879H3ZM3 34.8105V33.7339H-3V34.8105H3ZM0 36.7339H0.0306616V30.7339H0V36.7339ZM3.02578 33.9049C3.53818 24.9308 11.826 17.3549 22.5241 17.3549V11.3549C9.13808 11.3549 -2.24392 20.9432 -2.96446 33.5629L3.02578 33.9049ZM22.5241 17.3549C33.2222 17.3549 41.51 24.9308 42.0224 33.9049L48.0126 33.5629C47.2921 20.9432 35.9101 11.3549 22.5241 11.3549V17.3549ZM45.0175 36.7339H45.0482V30.7339H45.0175V36.7339ZM42.0482 33.7339V34.8105H48.0482V33.7339H42.0482Z" fill="#7180AC" mask="url(#path-3-inside-2)"/>
<line x1="43.5" y1="61.5" x2="43.5" y2="111.5" stroke="#7180AC" stroke-width="3" stroke-linecap="round" stroke-linejoin="round"/>
<line x1="35.5" y1="62.5" x2="35.5" y2="97.5" stroke="#7180AC" stroke-width="3" stroke-linecap="round" stroke-linejoin="round"/>
<line x1="30.5" y1="54.5" x2="11.5" y2="54.5" stroke="#7180AC" stroke-width="3" stroke-linecap="round" stroke-linejoin="round"/>
<line x1="52.5" y1="61.5" x2="52.5" y2="103.5" stroke="#7180AC" stroke-width="3" stroke-linecap="round" stroke-linejoin="round"/>
<path fill-rule="evenodd" clip-rule="evenodd" d="M60 1L54.5 2.5L49.5 3.86842V36.5132L54.5 35.4868V13.5L60 10V1Z" fill="#7180AC"/>
<circle cx="8.5" cy="48.5" r="2.5" fill="#7180AC"/>
<circle cx="32.5" cy="48.5" r="2.5" fill="#7180AC"/>
</svg>
