<svg width="22" height="22" viewBox="0 0 22 22" fill="none" xmlns="http://www.w3.org/2000/svg">
<path d="M20.8332 5.26165C20.7457 4.90892 20.3043 4.78939 20.0473 5.04642L17.1426 7.9511L14.4911 7.5093L14.0493 4.85775L16.954 1.95307C17.2126 1.69447 17.0879 1.25385 16.7329 1.16557C14.8821 0.706974 12.8442 1.20111 11.3977 2.6472C9.84929 4.19564 9.42312 6.44017 10.0677 8.39719L1.73213 16.7327C0.755958 17.7089 0.755958 19.2917 1.73213 20.2679C2.7083 21.244 4.2911 21.244 5.26727 20.2679L13.5958 11.9394C15.5536 12.5921 17.7938 12.1612 19.3524 10.6027C20.8004 9.15461 21.2938 7.1136 20.8332 5.26165Z" stroke="white" stroke-width="1.5"/>
</svg>
