<svg width="48" height="47" viewBox="0 0 48 47" fill="none" xmlns="http://www.w3.org/2000/svg">
<path d="M45.9247 16.0495C45.9247 15.9528 45.828 15.7594 45.828 15.6627C45.7313 15.4694 45.7313 15.3727 45.6346 15.1793C45.538 14.8893 45.4413 14.5992 45.3446 14.4058C45.3446 14.3092 45.3446 14.3092 45.2479 14.2125C44.0877 11.5053 42.4441 8.99157 40.2204 6.86453C35.9663 2.61046 30.0686 0 23.5908 0C19.5301 0 16.2428 3.28724 16.2428 7.34795C16.2428 11.4087 19.5301 14.6959 23.5908 14.6959C24.9444 14.6959 26.0079 13.6324 26.0079 12.2788C26.0079 10.9252 24.9444 9.86172 23.5908 9.86172C22.2372 9.86172 21.077 8.70152 21.077 7.34795C21.077 5.99438 22.2372 4.83418 23.5908 4.83418C31.3255 4.83418 37.9 9.57167 40.8005 16.2428C41.7673 18.4666 42.2507 20.8836 42.2507 23.4941C42.2507 33.7426 33.8392 42.154 23.5908 42.154C13.3423 42.154 4.93086 33.7426 4.93086 23.4941C4.93086 21.7538 5.12423 20.1102 5.60765 18.4666C5.70433 18.1765 5.80101 17.7898 5.8977 17.4997V17.403C5.99438 17.0163 6.18775 16.7263 6.28443 16.3395C6.28443 16.3395 6.28443 16.3395 6.28443 16.2428C7.25127 14.0191 8.60484 11.9888 10.2485 10.3451C10.7319 9.86172 11.2153 9.47499 11.6987 8.99157C12.7622 8.12142 12.8589 6.67117 12.0854 5.60765C11.2153 4.54413 9.76504 4.44744 8.70152 5.22091C8.02473 5.70433 7.44463 6.28443 6.86453 6.86453C5.02755 8.70152 3.57729 10.7319 2.41709 12.9556C2.22372 13.439 2.03036 13.8257 1.83699 14.3092V14.4058C1.64362 14.7926 1.45025 15.276 1.35357 15.6627C1.35357 15.7594 1.35357 15.7594 1.25689 15.8561C1.16021 16.2428 0.966837 16.6296 0.870153 17.113V17.2097C0.290052 19.24 0 21.2704 0 23.4941C0 36.4497 10.5385 46.9882 23.4941 46.9882C36.4497 46.9882 46.9882 36.4497 46.9882 23.4941C47.0849 20.8836 46.6982 18.3699 45.9247 16.0495Z" fill="white"/>
<path d="M23.5909 36.6431C29.1986 36.6431 33.8394 32.0023 33.8394 26.3946C33.8394 25.0411 32.7759 23.9775 31.4223 23.9775C30.0687 23.9775 29.0052 25.0411 29.0052 26.3946C29.0052 29.3918 26.5881 31.8089 23.5909 31.8089C20.5937 31.8089 18.1766 29.3918 18.1766 26.3946C18.1766 25.0411 17.1131 23.9775 15.7596 23.9775C14.406 23.9775 13.3425 25.0411 13.3425 26.3946C13.3425 32.099 17.9833 36.6431 23.5909 36.6431Z" fill="white"/>
</svg>
