<svg width="18" height="18" viewBox="0 0 18 18" fill="none" xmlns="http://www.w3.org/2000/svg">
<path d="M4.28001 1.8935C2.07501 3.4685 0.640011 6.04449 0.640011 8.95999C0.640011 13.748 4.51801 17.6295 9.3025 17.64C14.08 17.6505 17.993 13.755 18 8.97399C18.0035 6.05849 16.5685 3.4755 14.367 1.897C13.9575 1.6065 13.387 1.729 13.142 2.1665L12.589 3.15C12.3825 3.5175 12.4805 3.983 12.82 4.23499C14.2725 5.31299 15.2 7.02099 15.2 8.95649C15.2035 12.187 12.5925 14.84 9.32 14.84C6.11401 14.84 3.41901 12.243 3.44001 8.92149C3.45051 7.10849 4.30451 5.35849 5.82351 4.23149C6.163 3.9795 6.25751 3.514 6.05101 3.15L5.498 2.1665C5.25301 1.7325 4.68601 1.603 4.28001 1.8935ZM7.92 9.23999V0.839999C7.92 0.3745 8.2945 0 8.76 0H9.88C10.3455 0 10.72 0.3745 10.72 0.839999V9.23999C10.72 9.70549 10.3455 10.08 9.88 10.08H8.76C8.2945 10.08 7.92 9.70549 7.92 9.23999Z" fill="white"/>
</svg>
