<svg width="20" height="19" viewBox="0 0 20 19" fill="none" xmlns="http://www.w3.org/2000/svg">
<path d="M8.95341 17.5384L3.33523 11.6103C3.09318 11.3685 1 9.21056 1 6.525C1 3.20194 2.93636 1 6.18182 1C7.59318 1 8.92955 1.83534 10 2.82457C11.067 1.83534 12.4068 1 13.8182 1C16.9443 1 19 3.07004 19 6.525C19 8.43017 17.9159 10.317 16.6784 11.6067L16.6648 11.6213L11.0466 17.5384C10.7678 17.8341 10.3918 18 10 18C9.60823 18 9.23222 17.8341 8.95341 17.5384ZM4.47386 10.3463L10 16.1791L15.5159 10.3647C16.4466 9.37543 17.3636 7.93556 17.3636 6.525C17.3636 4.07392 16.0614 2.75862 13.8182 2.75862C12.2091 2.75862 10.6545 4.56487 10 5.26465C9.42045 4.64181 7.81818 2.75862 6.18182 2.75862C3.93523 2.75862 2.63636 4.07392 2.63636 6.525C2.63636 7.89159 3.54659 9.41573 4.47386 10.3463Z" fill="white" stroke="white"/>
</svg>
