<svg width="24" height="19" viewBox="0 0 24 19" fill="none" xmlns="http://www.w3.org/2000/svg">
<path d="M14.4 12.4688H14.4008C14.4008 11.8683 14.3505 12.1448 17.5901 5.73303C18.252 4.42344 20.1472 4.42084 20.8103 5.73303C24.0773 12.1997 23.9992 11.8872 23.9992 12.4688H24C24 14.1082 21.8509 15.4375 19.2 15.4375C16.5491 15.4375 14.4 14.1082 14.4 12.4688ZM19.2 6.53125L16.5 11.875H21.9L19.2 6.53125ZM0.000749588 12.4688C0.000749588 11.8683 -0.0495014 12.1448 3.19012 5.73303C3.852 4.42344 5.74725 4.42084 6.41025 5.73303C9.67725 12.1997 9.59925 11.8872 9.59925 12.4688H9.6C9.6 14.1082 7.45087 15.4375 4.8 15.4375C2.14912 15.4375 0 14.1082 0 12.4688H0.000749588ZM7.5 11.875L4.8 6.53125L2.1 11.875H7.5ZM4.2 16.625H10.8V5.68701C9.91837 5.30516 9.2565 4.51881 9.06037 3.5625H4.2C3.8685 3.5625 3.6 3.2968 3.6 2.96875V1.78125C3.6 1.4532 3.8685 1.1875 4.2 1.1875H9.6135C10.161 0.470547 11.0216 0 12 0C12.9784 0 13.839 0.470547 14.3865 1.1875H19.8C20.1315 1.1875 20.4 1.4532 20.4 1.78125V2.96875C20.4 3.2968 20.1315 3.5625 19.8 3.5625H14.9396C14.7435 4.51844 14.082 5.30516 13.2 5.68701V16.625H19.8C20.1315 16.625 20.4 16.8907 20.4 17.2188V18.4062C20.4 18.7343 20.1315 19 19.8 19H4.2C3.8685 19 3.6 18.7343 3.6 18.4062V17.2188C3.6 16.8907 3.8685 16.625 4.2 16.625Z" fill="white"/>
</svg>
