<svg width="22" height="13" viewBox="0 0 22 13" fill="none" xmlns="http://www.w3.org/2000/svg">
<path d="M11.023 0C-4.19138 0 -1.26847 12.75 5.57593 12.75C6.94749 12.75 8.23896 12.063 9.06224 10.8953L9.94671 9.64053C10.485 8.87719 11.5613 8.87719 12.0996 9.64053L12.9841 10.8953C13.807 12.063 15.0985 12.75 16.4701 12.75C22.9965 12.75 26.4605 0 11.023 0ZM6.32496 8.11351C4.91352 8.11351 3.99571 7.26152 3.57221 6.75053C3.39243 6.53371 3.39243 6.21629 3.57221 5.99914C3.99571 5.48781 4.91318 4.63615 6.32496 4.63615C7.73674 4.63615 8.65421 5.48814 9.07771 5.99914C9.25749 6.21596 9.25749 6.53338 9.07771 6.75053C8.65421 7.26186 7.7364 8.11351 6.32496 8.11351ZM15.675 8.11351C14.2635 8.11351 13.3457 7.26152 12.9222 6.75053C12.7424 6.53371 12.7424 6.21629 12.9222 5.99914C13.3457 5.48781 14.2632 4.63615 15.675 4.63615C17.0867 4.63615 18.0042 5.48814 18.4277 5.99914C18.6075 6.21596 18.6075 6.53338 18.4277 6.75053C18.0042 7.26186 17.0864 8.11351 15.675 8.11351Z" fill="white"/>
</svg>
