<svg width="18" height="17" viewBox="0 0 18 17" fill="none" xmlns="http://www.w3.org/2000/svg">
<g id="Vector">
<path d="M9.65261 2.49522C9.65919 2.29481 9.67095 2.0944 9.68584 1.89605C9.72415 1.38583 10.1581 1 10.6698 1H14.5913C15.034 1 15.384 1.39055 15.3598 1.83257C15.3598 2.13841 15.3431 2.44424 15.3263 2.73309C15.3096 3.02194 15.3096 3.2768 15.3096 3.49768V3.49769V3.93946C15.3096 5.62158 15.477 7.40564 15.7782 9.27466C16.0138 10.7362 16.321 12.0731 16.6839 13.2935C16.846 13.8386 16.5452 14.4206 15.9995 14.5808L13.6708 15.2647C13.2437 15.3901 12.7826 15.2196 12.5603 14.8339C11.8018 13.518 11.1345 11.9672 10.5899 10.1922C9.93713 8.11927 9.61914 5.92742 9.61914 3.63362V3.63361C9.61914 3.39573 9.61914 3.00494 9.65261 2.49522Z" stroke="#7180AC" stroke-width="2"/>
<path d="M1.03324 2.49522C1.03982 2.29481 1.05157 2.0944 1.06646 1.89605C1.10478 1.38583 1.53875 1 2.05041 1H5.97192C6.4146 1 6.76462 1.39055 6.74043 1.83257C6.74043 2.13841 6.72369 2.44424 6.70696 2.73309C6.69022 3.02193 6.69022 3.27678 6.69022 3.49765V3.49769V3.93946C6.69022 5.62158 6.85759 7.40564 7.15885 9.27466C7.39443 10.7362 7.70166 12.0731 8.06453 13.2935C8.22662 13.8386 7.9258 14.4206 7.38016 14.5808L5.05145 15.2647C4.62431 15.3901 4.16327 15.2196 3.94094 14.8339C3.18242 13.518 2.51509 11.9672 1.97048 10.1922C1.31776 8.11927 0.999762 5.92742 0.999762 3.63362C0.999762 3.39574 0.999762 3.00495 1.03324 2.49522Z" stroke="#7180AC" stroke-width="2"/>
</g>
</svg>
