<svg width="56" height="56" viewBox="0 0 56 56" fill="none" xmlns="http://www.w3.org/2000/svg">
<circle cx="28" cy="28" r="28" fill="#FF89D2"/>
<circle cx="28" cy="28" r="28" stroke="white"/>
<path d="M34.6214 16.3035L15.1229 27.549C13.5105 28.4818 13.6652 30.8677 15.39 31.5756L20.7474 33.7928V37.7491C20.7474 39.9241 23.5222 40.8194 24.8065 39.0897L26.8595 36.3194L32.1044 38.485C32.3809 38.5975 32.6715 38.6537 32.9621 38.6537C33.3465 38.6537 33.7261 38.5553 34.0683 38.3631C34.6682 38.0256 35.0807 37.4256 35.1885 36.7459L37.9727 18.5957C38.2586 16.716 36.2431 15.3707 34.6214 16.3035ZM22.9973 37.7491V34.7209L24.7128 35.4287L22.9973 37.7491ZM32.9621 36.4037L25.7533 33.4271L32.3247 23.9442C32.8262 23.2177 31.8794 22.3739 31.2138 22.9505L21.3005 31.5896L16.2478 29.499L35.7463 18.2489L32.9621 36.4037Z" fill="white"/>
</svg>

