<svg width="56" height="56" viewBox="0 0 56 56" fill="none" xmlns="http://www.w3.org/2000/svg">
<circle cx="28" cy="28" r="28" fill="#D4E0F6"/>
<circle cx="28" cy="28" r="28" stroke="white"/>
<path d="M35.6214 16.3035L16.1229 27.549C14.5105 28.4818 14.6652 30.8677 16.39 31.5756L21.7474 33.7928V37.7491C21.7474 39.9241 24.5222 40.8194 25.8065 39.0897L27.8595 36.3194L33.1044 38.485C33.3809 38.5975 33.6715 38.6537 33.9621 38.6537C34.3465 38.6537 34.7261 38.5553 35.0683 38.3631C35.6682 38.0256 36.0807 37.4256 36.1885 36.7459L38.9727 18.5957C39.2586 16.716 37.2431 15.3707 35.6214 16.3035ZM23.9973 37.7491V34.7209L25.7128 35.4287L23.9973 37.7491ZM33.9621 36.4037L26.7533 33.4271L33.3247 23.9442C33.8262 23.2177 32.8794 22.3739 32.2138 22.9505L22.3005 31.5896L17.2478 29.499L36.7463 18.2489L33.9621 36.4037Z" fill="white"/>
</svg>

