<svg width="50" height="50" viewBox="0 0 50 50" fill="none" xmlns="http://www.w3.org/2000/svg">
<path d="M42.9612 0.632354L2.33932 24.0603C-1.01979 26.0037 -0.697551 30.9744 2.89592 32.4491L14.0572 37.0683V45.3105C14.0572 49.8418 19.838 51.7071 22.5135 48.1035L26.7906 42.332L37.7175 46.8438C38.2936 47.0781 38.899 47.1953 39.5044 47.1953C40.3051 47.1953 41.0961 46.9902 41.8089 46.5898C43.0588 45.8867 43.9181 44.6367 44.1427 43.2207L49.9431 5.40779C50.5387 1.49174 46.3398 -1.31102 42.9612 0.632354ZM18.7443 45.3105V39.0019L22.3183 40.4765L18.7443 45.3105ZM39.5044 42.5078L24.4861 36.3065L38.1764 16.5505C39.2212 15.0368 37.2487 13.279 35.8621 14.4801L15.2094 32.4784L4.68289 28.1229L45.3048 4.68513L39.5044 42.5078Z" fill="white"/>
</svg>
