<svg width="13" height="12" viewBox="0 0 13 12" fill="none" xmlns="http://www.w3.org/2000/svg">
<g id="Vector">
<path d="M6.94874 2.03287C6.95022 1.98763 6.95208 1.9424 6.95427 1.89721C6.97904 1.38597 7.41791 1 7.92975 1H10.3413C10.6472 1 10.889 1.26973 10.8724 1.57512C10.8724 1.78639 10.8609 1.99765 10.8494 2.19718C10.8379 2.39671 10.8379 2.57276 10.8379 2.72534V2.72535V3.03052C10.8379 4.19249 10.9529 5.42488 11.16 6.71596C11.3025 7.60424 11.4832 8.42585 11.6944 9.18461C11.8467 9.73141 11.5471 10.312 11.0027 10.4727L9.9389 10.7866C9.51069 10.9129 9.04718 10.7419 8.8324 10.3505C8.35847 9.48689 7.93964 8.48469 7.5931 7.34977C7.14435 5.91784 6.92573 4.40376 6.92573 2.81925V2.81924C6.92573 2.65492 6.92573 2.38497 6.94874 2.03287Z" stroke="#7180AC" stroke-width="1.5"/>
<path d="M1.02301 2.03287C1.02449 1.98763 1.02635 1.9424 1.02854 1.89721C1.0533 1.38597 1.49218 1 2.00402 1H4.41558C4.72143 1 4.96328 1.26973 4.94665 1.57512C4.94665 1.78639 4.93514 1.99765 4.92364 2.19718C4.91213 2.39671 4.91213 2.57276 4.91213 2.72533V2.72535V3.03052C4.91213 4.19249 5.02719 5.42488 5.23431 6.71596C5.3768 7.60424 5.55743 8.42585 5.76868 9.18461C5.92092 9.73141 5.62132 10.312 5.07692 10.4727L4.01316 10.7866C3.58496 10.9129 3.12145 10.7419 2.90667 10.3505C2.43274 9.48689 2.01391 8.48469 1.66736 7.34977C1.21862 5.91784 1 4.40376 1 2.81925C1 2.65493 1 2.38498 1.02301 2.03287Z" stroke="#7180AC" stroke-width="1.5"/>
</g>
</svg>
