<svg width="36" height="40" viewBox="0 0 36 40"  xmlns="http://www.w3.org/2000/svg">
<g clip-path="url(#clip0)">
<path d="M21.0896 32.5H22.9782C23.2287 32.5 23.4688 32.4012 23.6459 32.2254C23.823 32.0496 23.9225 31.8111 23.9225 31.5625V14.6875C23.9225 14.4389 23.823 14.2004 23.6459 14.0246C23.4688 13.8488 23.2287 13.75 22.9782 13.75H21.0896C20.8391 13.75 20.599 13.8488 20.4219 14.0246C20.2448 14.2004 20.1453 14.4389 20.1453 14.6875V31.5625C20.1453 31.8111 20.2448 32.0496 20.4219 32.2254C20.599 32.4012 20.8391 32.5 21.0896 32.5ZM33.9952 6.25H27.5101L24.8346 1.82031C24.4988 1.26486 24.0238 0.805228 23.4559 0.486216C22.888 0.167205 22.2465 -0.000308078 21.594 4.25348e-07H13.6602C13.008 -3.81851e-05 12.3668 0.167603 11.7992 0.486601C11.2316 0.8056 10.7569 1.26508 10.4212 1.82031L7.74413 6.25H1.25908C0.925151 6.25 0.604899 6.3817 0.368776 6.61612C0.132653 6.85054 0 7.16848 0 7.5L0 8.75C0 9.08152 0.132653 9.39946 0.368776 9.63388C0.604899 9.8683 0.925151 10 1.25908 10H2.51816V36.25C2.51816 37.2446 2.91612 38.1984 3.62449 38.9016C4.33286 39.6049 5.29361 40 6.2954 40H28.9588C29.9606 40 30.9214 39.6049 31.6297 38.9016C32.3381 38.1984 32.7361 37.2446 32.7361 36.25V10H33.9952C34.3291 10 34.6493 9.8683 34.8855 9.63388C35.1216 9.39946 35.2542 9.08152 35.2542 8.75V7.5C35.2542 7.16848 35.1216 6.85054 34.8855 6.61612C34.6493 6.3817 34.3291 6.25 33.9952 6.25ZM13.5225 3.97734C13.5646 3.90781 13.6241 3.8503 13.6953 3.81045C13.7665 3.7706 13.8469 3.74977 13.9286 3.75H21.3257C21.4072 3.74991 21.4875 3.7708 21.5585 3.81064C21.6295 3.85049 21.6889 3.90792 21.7309 3.97734L23.1049 6.25H12.1493L13.5225 3.97734ZM28.9588 36.25H6.2954V10H28.9588V36.25ZM12.276 32.5H14.1646C14.4151 32.5 14.6553 32.4012 14.8324 32.2254C15.0095 32.0496 15.109 31.8111 15.109 31.5625V14.6875C15.109 14.4389 15.0095 14.2004 14.8324 14.0246C14.6553 13.8488 14.4151 13.75 14.1646 13.75H12.276C12.0256 13.75 11.7854 13.8488 11.6083 14.0246C11.4312 14.2004 11.3317 14.4389 11.3317 14.6875V31.5625C11.3317 31.8111 11.4312 32.0496 11.6083 32.2254C11.7854 32.4012 12.0256 32.5 12.276 32.5Z" fill="#B6C5E6"/>
</g>
<defs>
<clipPath id="clip0">
<rect width="35.2542" height="40" />
</clipPath>
</defs>
</svg>
