<svg width="20" height="21" viewBox="0 0 20 21" fill="none" xmlns="http://www.w3.org/2000/svg">
<path d="M9.96358 0.28125C4.45951 0.28125 0 4.85552 0 10.5013C0 16.147 4.45951 20.7213 9.96358 20.7213C15.4677 20.7213 19.9272 16.147 19.9272 10.5013C19.9272 4.85552 15.4677 0.28125 9.96358 0.28125ZM9.96358 18.7432C5.5322 18.7432 1.92844 15.0467 1.92844 10.5013C1.92844 5.95582 5.5322 2.25931 9.96358 2.25931C14.395 2.25931 17.9987 5.95582 17.9987 10.5013C17.9987 15.0467 14.395 18.7432 9.96358 18.7432ZM6.74953 9.8419C7.46064 9.8419 8.03515 9.2526 8.03515 8.52319C8.03515 7.79377 7.46064 7.20448 6.74953 7.20448C6.03841 7.20448 5.4639 7.79377 5.4639 8.52319C5.4639 9.2526 6.03841 9.8419 6.74953 9.8419ZM13.1776 7.20448C12.4665 7.20448 11.892 7.79377 11.892 8.52319C11.892 9.2526 12.4665 9.8419 13.1776 9.8419C13.8888 9.8419 14.4633 9.2526 14.4633 8.52319C14.4633 7.79377 13.8888 7.20448 13.1776 7.20448ZM9.96358 12.4793C8.34852 12.4793 6.82988 13.2087 5.79334 14.4821C5.45185 14.9024 5.5081 15.5247 5.91789 15.875C6.32768 16.2212 6.93433 16.1676 7.27583 15.7472C7.94275 14.9272 8.92303 14.4533 9.96358 14.4533C11.0041 14.4533 11.9844 14.923 12.6513 15.7472C12.9768 16.147 13.5794 16.2376 14.0093 15.875C14.4191 15.5247 14.4713 14.9024 14.1338 14.4821C13.0973 13.2087 11.5787 12.4793 9.96358 12.4793Z" fill="white"/>
</svg>
