<svg width="17" height="16" viewBox="0 0 17 16" fill="none" xmlns="http://www.w3.org/2000/svg">
<path d="M15.485 5.21708L5.66008 15.0398L2.19446 15.5022C1.19005 15.6363 0.30966 14.8584 0.393783 13.8967L0.684519 10.6036L10.5094 0.780791C11.3662 -0.0758025 12.7889 -0.11645 13.6893 0.689937L15.3952 2.21095C16.2995 3.01723 16.338 4.36422 15.485 5.21708ZM11.718 6.44751L9.42375 4.40189L2.47235 11.3555L2.2594 13.7344L4.76269 13.3976L11.718 6.44751ZM14.127 3.48264L12.4211 1.96162C12.2592 1.81727 12.0016 1.82463 11.852 1.97788L10.6959 3.13372L12.9902 5.17934L14.1463 4.0235C14.2957 3.86662 14.2889 3.62699 14.127 3.48264Z" fill="#D4E0F6"/>
</svg>
